<?xml version="1.0" standalone="no"?>
<!DOCTYPE svg PUBLIC "-//W3C//DTD SVG 20010904//EN"
 "http://www.w3.org/TR/2001/REC-SVG-20010904/DTD/svg10.dtd">
<svg version="1.0" xmlns="http://www.w3.org/2000/svg"
 width="1150.000000pt" height="1150.000000pt" viewBox="0 0 1150.000000 1150.000000"
 preserveAspectRatio="xMidYMid meet">
<metadata>
Created by potrace 1.11, written by Peter Selinger 2001-2013
</metadata>
<g transform="translate(0.000000,1150.000000) scale(0.100000,-0.100000)"
fill="#000000" stroke="none">
<path d="M5717 11158 c-14 -29 -145 -296 -292 -593 -147 -297 -271 -550 -276
-563 -11 -30 -33 -37 -169 -57 -93 -14 -246 -43 -362 -70 -217 -49 -600 -179
-816 -276 -389 -175 -784 -425 -1117 -708 -106 -90 -95 -80 -221 -202 -106
-102 -212 -214 -281 -295 -23 -27 -54 -62 -68 -79 -96 -111 -300 -397 -400
-561 -52 -86 -152 -272 -209 -388 l-55 -113 -58 -8 c-32 -3 -67 -8 -78 -10
-11 -2 -42 -7 -70 -10 -27 -3 -57 -8 -65 -10 -8 -2 -37 -7 -65 -10 -27 -3 -59
-7 -70 -9 -11 -2 -41 -6 -66 -10 -25 -4 -57 -9 -70 -11 -35 -5 -178 -26 -211
-31 -62 -7 -114 -15 -128 -19 -8 -2 -37 -6 -65 -10 -47 -5 -76 -9 -145 -20
-39 -5 -105 -15 -150 -21 -19 -3 -60 -9 -90 -14 -30 -5 -70 -11 -88 -12 -34
-2 -33 -3 105 -136 76 -74 277 -270 446 -436 170 -165 354 -344 409 -397 75
-72 99 -102 95 -115 -8 -28 -22 -168 -34 -339 -13 -196 -6 -580 13 -727 2 -18
6 -58 9 -88 5 -54 30 -225 41 -285 15 -82 56 -274 65 -301 5 -17 12 -41 14
-54 19 -98 128 -421 201 -597 69 -166 155 -348 218 -458 22 -38 45 -80 51 -93
64 -120 369 -558 451 -647 11 -11 32 -36 48 -55 46 -56 102 -118 218 -236 64
-66 106 -117 103 -125 -2 -8 -14 -69 -25 -136 -20 -117 -24 -138 -35 -193 -2
-14 -7 -45 -11 -70 -3 -24 -7 -47 -9 -50 -2 -4 -6 -26 -9 -51 -6 -48 -12 -78
-26 -154 -5 -27 -12 -68 -15 -90 -5 -35 -12 -77 -40 -230 -17 -96 -67 -394
-70 -418 -2 -16 -6 -40 -9 -55 -3 -15 -8 -40 -11 -57 -3 -16 -7 -39 -9 -50 -2
-11 -7 -42 -10 -68 l-7 -48 78 42 c170 91 243 129 358 189 132 69 267 140 390
205 44 23 127 67 185 97 58 31 150 79 205 108 55 29 155 81 221 116 l122 64
68 -31 c290 -132 669 -251 999 -315 11 -2 31 -6 45 -9 28 -5 65 -11 125 -20
22 -4 51 -8 65 -10 14 -2 52 -7 85 -11 33 -3 69 -8 79 -10 138 -26 749 -25
971 1 142 17 147 18 265 36 36 6 85 14 110 19 25 6 57 12 73 15 48 9 81 16
122 26 22 5 48 11 57 14 215 51 589 178 763 259 123 58 115 57 181 22 64 -35
238 -127 404 -214 58 -30 146 -76 195 -102 50 -26 135 -71 190 -100 157 -82
293 -154 380 -200 364 -193 364 -193 359 -163 -3 16 -11 64 -19 108 -8 44 -17
96 -20 115 -3 19 -14 85 -25 145 -11 61 -21 124 -24 140 -11 69 -46 271 -50
290 -2 11 -7 40 -11 65 -4 25 -9 54 -11 65 -2 10 -6 37 -10 59 -3 22 -7 43 -9
46 -2 3 -6 30 -10 60 -4 30 -8 57 -10 60 -2 3 -6 30 -10 60 -4 30 -8 57 -10
60 -2 3 -6 25 -9 50 -3 25 -8 56 -11 70 -3 14 -8 45 -11 70 -3 25 -8 47 -9 50
-2 3 -6 26 -10 50 -3 25 -8 52 -10 60 -3 8 -7 35 -10 59 -5 43 -5 44 72 125
157 163 324 366 446 541 80 115 197 301 197 313 0 6 4 12 8 14 11 4 79 128
165 301 182 367 329 814 397 1202 5 33 12 71 15 84 6 34 24 165 31 231 3 30 7
66 9 80 25 145 24 734 0 905 -17 115 -18 109 34 162 26 26 182 179 346 338
723 703 764 744 757 749 -4 2 -32 7 -63 10 -31 4 -67 9 -80 11 -13 3 -44 8
-69 10 -25 3 -52 8 -60 10 -8 2 -38 7 -66 10 -28 3 -61 8 -74 10 -13 2 -46 7
-74 10 -28 3 -58 7 -66 10 -8 2 -37 6 -65 10 -27 3 -75 10 -105 15 -30 5 -77
12 -105 15 -27 3 -61 8 -75 10 -14 3 -38 7 -55 9 -16 3 -66 10 -110 17 -44 6
-89 13 -100 14 -173 23 -367 53 -369 57 -234 489 -485 865 -816 1223 -109 117
-277 281 -376 365 -180 154 -305 248 -484 367 -345 230 -707 406 -1105 538
-241 80 -540 154 -735 180 -24 4 -49 9 -54 12 -4 3 -139 269 -298 592 -330
670 -321 651 -330 657 -4 3 -18 -19 -31 -48z m-960 -1945 c-3 -5 -74 -150
-159 -323 -361 -733 -449 -910 -453 -910 -2 0 -19 8 -37 19 -323 186 -466 256
-595 294 -29 9 -62 14 -74 12 -26 -5 -122 -106 -157 -165 -22 -37 -27 -58 -28
-116 0 -46 -5 -77 -15 -88 -8 -9 -19 -22 -25 -30 -16 -17 -50 -93 -62 -139
-11 -41 6 -131 32 -172 17 -27 -2 -87 -30 -92 -10 -2 -37 -6 -59 -9 -22 -3
-65 -9 -95 -14 -30 -5 -80 -12 -110 -16 -30 -3 -57 -8 -60 -9 -3 -2 -30 -6
-60 -10 -30 -3 -155 -21 -277 -39 -123 -18 -223 -30 -223 -28 0 21 275 410
363 512 264 308 536 552 847 762 173 116 239 155 450 262 183 93 427 190 640
255 166 51 195 57 187 44z m2063 -25 c19 -5 40 -10 45 -11 6 -1 15 -5 20 -8 6
-3 33 -12 60 -19 140 -37 479 -178 655 -272 149 -80 426 -251 485 -300 5 -5
44 -34 85 -65 143 -109 256 -208 401 -352 124 -125 180 -186 288 -316 90 -108
297 -404 314 -448 6 -16 2 -17 -28 -12 -38 5 -78 11 -140 20 -22 4 -51 8 -65
11 -14 2 -47 7 -75 10 -27 3 -72 9 -100 14 -27 5 -72 12 -100 15 -72 9 -118
16 -135 20 -8 2 -44 7 -80 11 -36 3 -72 10 -81 15 -18 9 -41 77 -28 84 19 13
47 131 40 170 -11 61 -74 180 -102 193 -4 2 -5 32 -3 66 4 84 -24 141 -112
227 -61 61 -67 64 -107 61 -71 -6 -382 -146 -529 -238 -21 -13 -39 -24 -42
-24 -2 0 -33 -17 -67 -39 l-64 -38 -198 401 c-110 220 -246 498 -304 616 -58
118 -108 219 -111 224 -2 4 6 5 19 1 13 -5 40 -12 59 -17z m-4646 -4262 c164
-160 342 -333 395 -385 236 -230 308 -301 305 -303 -1 -2 -5 -21 -8 -43 -4
-22 -11 -65 -16 -95 -5 -30 -12 -72 -16 -94 -3 -21 -7 -46 -9 -55 -17 -87 -35
-193 -39 -221 -4 -30 -30 -182 -51 -300 -3 -19 -8 -48 -11 -65 -2 -16 -9 -57
-15 -90 -6 -33 -13 -71 -15 -85 -3 -14 -6 -36 -9 -50 -3 -14 -7 -41 -10 -60
-3 -19 -10 -57 -15 -85 -11 -60 -18 -105 -26 -165 -12 -87 -16 -88 -65 -23
-24 32 -47 60 -50 63 -3 3 -43 58 -88 123 -466 661 -727 1468 -732 2267 0 63
0 118 0 122 1 6 7 1 475 -456z m7581 272 c-5 -169 -11 -243 -31 -398 -21 -156
-22 -161 -28 -195 -3 -16 -8 -46 -11 -65 -24 -142 -136 -534 -190 -665 -169
-412 -326 -695 -549 -991 -62 -83 -78 -94 -83 -59 -2 11 -10 61 -19 110 -8 50
-17 104 -20 120 -2 17 -9 55 -15 85 -6 30 -12 69 -15 85 -2 17 -6 41 -9 55
-11 58 -14 77 -19 110 -3 19 -8 46 -10 60 -5 23 -32 184 -41 240 -2 14 -11 66
-20 115 -9 50 -18 106 -21 125 -2 19 -7 45 -10 58 -2 13 -14 75 -25 139 l-20
117 105 100 c57 56 241 234 408 397 538 527 613 599 620 599 3 0 5 -64 3 -142z
m-3712 -3197 c29 -15 111 -59 182 -96 72 -37 162 -85 200 -105 84 -45 262
-139 440 -231 71 -37 131 -72 133 -77 5 -17 -406 -129 -548 -148 -19 -2 -46
-6 -60 -9 -174 -36 -242 -30 -317 24 -26 19 -51 50 -68 85 l-27 56 0 242 c0
282 0 288 8 288 3 0 28 -13 57 -29z m-567 -258 c-2 -293 -5 -307 -86 -376 -66
-56 -129 -66 -270 -42 -14 2 -41 6 -60 9 -19 3 -46 8 -60 11 -14 2 -50 10 -80
16 -137 27 -427 105 -442 118 -7 6 40 32 337 186 72 37 148 78 170 90 22 12
114 61 205 108 91 47 190 99 220 115 30 17 58 28 61 26 4 -2 6 -120 5 -261z"/>
</g>
</svg>
